<?xml version="1.0" encoding="UTF-8" standalone="no"?><!-- Generator: Gravit.io --><svg xmlns="http://www.w3.org/2000/svg" xmlns:xlink="http://www.w3.org/1999/xlink" style="isolation:isolate" viewBox="0 0 1440 1000" width="1440pt" height="1000pt"><defs><clipPath id="_clipPath_1bakmnRHaG5dl3Riv3rhyXLIbx5S8RVG"><rect width="1440" height="1000"/></clipPath></defs><g clip-path="url(#_clipPath_1bakmnRHaG5dl3Riv3rhyXLIbx5S8RVG)"><rect x="0" y="0" width="1440" height="1000" transform="matrix(1,0,0,1,0,0)" fill="rgb(21,27,38)"/><path d=" M -583.06 994.109 C -510.66 912.309 -146.066 820.823 98.94 752.109 C 214.981 719.564 313.439 692.306 431.94 670.109 C 550.059 647.984 651.881 641.965 770.94 626.109 C 1075.93 585.49 1336.022 563.188 1637.94 503.109 C 1643.212 502.06 1647.566 500.504 1652.94 500.109 C 1676.495 498.379 1690.596 517.645 1709.94 529.109 Q 2106.793 764.291 1439.94 1454.109 L -198.06 1454.109 Q -726.856 1156.575 -583.06 994.109 Z " fill="rgb(255,255,255)"/></g></svg>